HIERARCHY
ROOT Hips
{
 OFFSET 0.000000 0.000000 0.000000
 CHANNELS 6 Xposition Yposition Zposition Yrotation Xrotation Zrotation
 JOINT Chest
 {
  OFFSET 0.000000 9.581000 -0.001100
  CHANNELS 3 Yrotation Xrotation Zrotation
  JOINT Chest2
  {
   OFFSET 0.000000 9.561100 0.002200
   CHANNELS 3 Yrotation Xrotation Zrotation
   JOINT Chest3
   {
    OFFSET 0.000000 9.521100 0.000000
    CHANNELS 3 Yrotation Xrotation Zrotation
    JOINT Chest4
    {
     OFFSET 0.000000 9.511400 0.000000
     CHANNELS 3 Yrotation Xrotation Zrotation
     JOINT Neck
     {
      OFFSET 0.000000 14.375100 0.000000
      CHANNELS 3 Yrotation Xrotation Zrotation
      JOINT Head
      {
       OFFSET 0.000000 8.901200 0.004600
       CHANNELS 3 Yrotation Xrotation Zrotation
       End Site
       {
        OFFSET 0.000000 16.962200 0.002400
       }
      }
     }
     JOINT RightCollar
     {
      OFFSET -2.920100 9.518800 0.000000
      CHANNELS 3 Yrotation Xrotation Zrotation
      JOINT RightShoulder
      {
       OFFSET -13.664500 0.000000 0.000000
       CHANNELS 3 Yrotation Xrotation Zrotation
       JOINT RightElbow
       {
        OFFSET 0.000000 -29.999200 0.000000
        CHANNELS 3 Yrotation Xrotation Zrotation
        JOINT RightWrist
        {
         OFFSET 0.000000 -24.253600 0.000000
         CHANNELS 3 Yrotation Xrotation Zrotation
         End Site
         {
          OFFSET 0.000000 -17.918900 0.000000
         }
        }
       }
      }
     }
     JOINT LeftCollar
     {
      OFFSET 2.920100 9.518800 0.000000
      CHANNELS 3 Yrotation Xrotation Zrotation
      JOINT LeftShoulder
      {
       OFFSET 13.664500 0.000000 0.000000
       CHANNELS 3 Yrotation Xrotation Zrotation
       JOINT LeftElbow
       {
        OFFSET 0.000000 -29.999200 0.000000
        CHANNELS 3 Yrotation Xrotation Zrotation
        JOINT LeftWrist
        {
         OFFSET 0.000000 -24.253600 0.000000
         CHANNELS 3 Yrotation Xrotation Zrotation
         End Site
         {
          OFFSET 0.000000 -17.918900 0.000000
         }
        }
       }
      }
     }
    }
   }
  }
 }
 JOINT RightHip
 {
  OFFSET -7.797300 0.005300 0.000500
  CHANNELS 3 Yrotation Xrotation Zrotation
  JOINT RightKnee
  {
   OFFSET 0.000000 -40.663400 -0.000500
   CHANNELS 3 Yrotation Xrotation Zrotation
   JOINT RightAnkle
   {
    OFFSET 0.000000 -39.523700 -0.000900
    CHANNELS 3 Yrotation Xrotation Zrotation
    JOINT RightToe
    {
     OFFSET 0.000000 -6.418000 14.485300
     CHANNELS 3 Yrotation Xrotation Zrotation
     End Site
     {
      OFFSET 0.000000 -1.465200 6.326400
     }
    }
   }
  }
 }
 JOINT LeftHip
 {
  OFFSET 7.797300 0.005300 0.000500
  CHANNELS 3 Yrotation Xrotation Zrotation
  JOINT LeftKnee
  {
   OFFSET 0.000000 -40.663400 -0.000500
   CHANNELS 3 Yrotation Xrotation Zrotation
   JOINT LeftAnkle
   {
    OFFSET 0.000000 -39.523700 -0.000900
    CHANNELS 3 Yrotation Xrotation Zrotation
    JOINT LeftToe
    {
     OFFSET 0.000000 -6.418000 14.485300
     CHANNELS 3 Yrotation Xrotation Zrotation
     End Site
     {
      OFFSET 0.000000 -1.465200 6.326400
     }
    }
   }
  }
 }
}
MOTION
Frames: 11
Frame Time: 0.008333
0.000000 86.422400 0.000000 0.000000 -5.767877 0.000000 0.000000 11.653817 0.000000 0.000000 -5.885947 0.000000 0.000000 -0.000000 0.000000 0.000000 -0.000000 0.000000 0.000000 12.528835 0.000000 0.000000 0.711642 0.000000 0.000000 -0.000000 0.000000 0.000000 0.000000 -90.000000 0.000000 -2.309062 0.000000 0.000000 2.309062 0.000000 0.000000 -0.000000 0.000000 0.000000 -0.000000 90.000000 0.000000 -2.309062 0.000000 0.000000 2.309062 0.000000 0.000000 8.520406 0.000000 0.000000 1.905762 0.000000 -0.000000 -4.658285 0.000000 0.000000 -0.000000 0.000000 0.000000 8.520406 0.000000 0.000000 1.905762 0.000000 -0.000000 -4.658285 0.000000 0.000000 -0.000000 0.000000
-2.224700 126.254046 22.687939 -171.339575 -24.604820 -1.878016 -1.590198 18.675942 1.439540 -0.208129 2.179170 0.203304 -0.341345 3.585827 0.332779 -1.428857 16.261357 1.345542 -0.451669 17.117327 -1.340624 -0.187269 -7.728176 -1.286136 -12.666082 0.600998 -8.591819 -41.806812 -7.515951 -21.409578 -108.500788 -17.572143 86.793203 -37.530608 -6.535681 -1.311746 2.596038 -0.629913 8.260078 42.952150 -15.564129 15.556610 82.040836 -30.065893 -68.381077 40.658557 -23.877177 -5.843964 -4.468245 -61.377048 6.650914 -43.888615 72.914376 -45.744217 20.040496 22.052946 10.630681 -0.108088 -0.106396 -0.047811 -8.213013 -54.799597 -0.059176 89.810962 80.077738 85.040058 -18.555486 -2.376751 -13.775867 0.008140 -0.041363 0.003605
-2.234875 126.254921 22.690675 -171.274809 -24.603005 -1.850225 -1.660757 18.665371 1.388390 -0.202967 2.163453 0.202398 -0.353724 3.603396 0.329775 -1.457058 16.249962 1.334793 -0.427320 17.131080 -1.340593 -0.165421 -7.763276 -1.324047 -12.634441 0.531614 -8.609895 -41.811947 -7.481001 -21.384709 -108.487047 -17.574464 86.790270 -37.485684 -6.534180 -1.348920 2.598691 -0.684243 8.226235 42.911754 -15.496923 15.556086 82.072300 -30.017498 -68.378799 40.649542 -23.825079 -5.890246 -4.761216 -61.409271 6.806183 -42.871915 73.148311 -44.996305 19.907694 22.224384 10.830203 -0.171016 -0.140356 -0.075610 -8.439255 -54.816675 0.061190 89.849023 80.246988 84.915723 -18.401011 -2.314414 -13.613355 0.029706 -0.043169 0.013154
-2.236558 126.258572 22.687335 -171.210082 -24.636322 -1.878657 -1.695003 18.672279 1.395337 -0.221482 2.184058 0.202836 -0.356264 3.602918 0.329867 -1.481048 16.240584 1.323896 -0.416245 17.130080 -1.346509 -0.153365 -7.753881 -1.323447 -12.610024 0.484193 -8.621645 -41.850006 -7.503862 -21.282866 -108.421395 -17.645836 86.774500 -37.427018 -6.525851 -1.356769 2.597716 -0.735413 8.204240 42.880713 -15.426655 15.539977 82.078811 -30.054488 -68.344887 40.624871 -23.757261 -5.941668 -4.969393 -61.396754 6.922263 -41.864745 73.387257 -44.184178 19.677967 22.363241 11.037392 -0.195291 -0.080697 -0.086424 -8.648045 -54.804086 0.199313 89.932694 80.379458 84.898983 -18.275516 -2.245077 -13.489867 0.040519 -0.042415 0.017941
-2.240640 126.262615 22.683612 -171.157582 -24.677376 -1.888074 -1.741938 18.699586 1.376653 -0.221898 2.191572 0.206885 -0.357656 3.594831 0.327543 -1.492073 16.248154 1.321734 -0.418686 17.119695 -1.350712 -0.141846 -7.744751 -1.324473 -12.600997 0.410542 -8.636112 -41.860829 -7.470539 -21.252558 -108.398269 -17.639864 86.769888 -37.441717 -6.514411 -1.375150 2.578457 -0.786385 8.192865 42.866753 -15.354239 15.508202 82.067567 -30.160591 -68.289575 40.589604 -23.695303 -5.962691 -5.114694 -61.423361 6.960402 -40.926790 73.653187 -43.414229 19.483924 22.592247 11.264772 -0.205346 -0.042196 -0.090926 -8.724451 -54.791900 0.226940 90.017386 80.463701 84.949090 -18.208640 -2.171763 -13.399831 0.047369 -0.044360 0.020973
-2.237315 126.266054 22.680514 -171.137795 -24.709911 -1.926461 -1.750568 18.722178 1.400647 -0.216628 2.188554 0.207816 -0.360889 3.595462 0.326398 -1.499030 16.255419 1.321728 -0.423973 17.112517 -1.356150 -0.137409 -7.745051 -1.326538 -12.592590 0.320470 -8.653719 -41.872512 -7.423304 -21.221177 -108.380150 -17.636242 86.770801 -37.426808 -6.514801 -1.412591 2.534676 -0.873645 8.184786 42.864963 -15.253469 15.505390 82.047838 -30.300282 -68.229696 40.557649 -23.667761 -5.931873 -5.107152 -61.483645 6.912690 -40.285507 73.843658 -42.816912 19.339683 22.927893 11.448445 -0.138819 -0.012386 -0.061495 -8.742507 -54.782933 0.244307 90.116983 80.489274 85.071431 -18.156436 -2.125438 -13.331198 0.031482 -0.025971 0.013943
-2.232480 126.268262 22.679435 -171.146314 -24.728289 -1.959204 -1.731638 18.737517 1.435381 -0.222136 2.177714 0.200033 -0.362957 3.596782 0.325935 -1.534569 16.244402 1.300097 -0.392701 17.125149 -1.344521 -0.134475 -7.746846 -1.326297 -12.543870 0.277131 -8.659771 -41.895732 -7.393917 -21.169345 -108.366641 -17.633357 86.778825 -37.399691 -6.522759 -1.467439 2.558110 -0.884039 8.200024 42.847471 -15.192702 15.456347 82.038847 -30.421007 -68.185454 40.541675 -23.682065 -5.864973 -4.975086 -61.569108 6.790992 -40.026012 73.903037 -42.508954 19.365825 23.368365 11.653794 -0.093911 0.001284 -0.041611 -8.744169 -54.776790 0.268869 90.167853 80.498399 85.146899 -18.127524 -2.094262 -13.293045 0.032476 -0.004310 0.014388
-2.223463 126.269304 22.679732 -171.175541 -24.732031 -2.005864 -1.700985 18.730252 1.479920 -0.222734 2.178020 0.199341 -0.364141 3.597365 0.324640 -1.536769 16.237044 1.297196 -0.414076 17.110035 -1.347971 -0.109154 -7.730829 -1.325067 -12.520515 0.229669 -8.675834 -41.900748 -7.346539 -21.155778 -108.361330 -17.631072 86.784657 -37.427384 -6.556033 -1.530994 2.559711 -0.896944 8.202302 42.813518 -15.136423 15.411190 82.062594 -30.478575 -68.176947 40.548965 -23.721403 -5.792482 -4.850387 -61.682978 6.708211 -40.164782 73.840674 -42.548921 19.496221 23.918971 11.834218 -0.026775 -0.000715 -0.011863 -8.746625 -54.779934 0.318082 90.215338 80.490408 85.229770 -18.106174 -2.077820 -13.274653 0.016896 0.007282 0.007487
-2.219039 126.269315 22.681591 -171.205092 -24.725618 -2.023144 -1.710795 18.700855 1.470108 -0.200968 2.186549 0.210889 -0.363693 3.595625 0.324248 -1.520759 16.243730 1.302619 -0.424629 17.101323 -1.350248 -0.108165 -7.728455 -1.318506 -12.512483 0.177783 -8.698171 -41.924223 -7.320296 -21.065116 -108.364663 -17.609445 86.817929 -37.381617 -6.593129 -1.629127 2.545935 -0.919478 8.190075 42.764456 -15.083995 15.379465 82.125053 -30.460268 -68.213839 40.577390 -23.767868 -5.733705 -4.698802 -61.817179 6.594916 -40.621221 73.676161 -42.889976 19.823867 24.536315 12.051308 0.011729 -0.002133 0.005197 -8.543393 -54.818031 0.121340 90.287504 80.381949 85.447066 -18.118209 -2.050685 -13.266287 -0.012701 0.009770 -0.005628
-2.213135 126.268300 22.684580 -171.244692 -24.705532 -2.043716 -1.691061 18.673435 1.490507 -0.221221 2.171103 0.197193 -0.361534 3.586328 0.321446 -1.477089 16.265449 1.316856 -0.440745 17.096158 -1.352339 -0.102221 -7.727266 -1.316773 -12.505777 0.160391 -8.708539 -41.946815 -7.323551 -20.957651 -108.379943 -17.571627 86.863414 -37.336729 -6.646613 -1.749557 2.526850 -0.945521 8.167360 42.702382 -15.033673 15.366225 82.217871 -30.391199 -68.286045 40.614398 -23.802823 -5.700858 -4.573493 -61.967833 6.521005 -41.281016 73.439934 -43.432252 20.259550 25.209391 12.265228 0.091224 0.001911 0.040421 -8.421639 -54.850506 0.006079 90.341949 80.187402 85.598719 -18.185020 -2.035503 -13.267292 -0.045608 0.038487 -0.020221
-2.206534 126.267120 22.687016 -171.290899 -24.683045 -2.066522 -1.668600 18.646702 1.515642 -0.204316 2.170918 0.201343 -0.378127 3.578590 0.315143 -1.470461 16.249436 1.308761 -0.443695 17.115978 -1.349434 -0.095092 -7.727246 -1.319464 -12.481872 0.120921 -8.741017 -41.945080 -7.273254 -20.879762 -108.402900 -17.527173 86.908484 -37.320754 -6.705119 -1.872354 2.538092 -0.936437 8.161186 42.625706 -14.988330 15.334549 82.323191 -30.318477 -68.367623 40.651922 -23.810840 -5.708161 -4.443497 -62.122872 6.454208 -42.058386 73.159233 -44.081240 20.695277 25.922662 12.503103 0.175457 0.009541 0.077758 -8.355344 -54.872275 -0.045505 90.348420 80.059637 85.669880 -18.188404 -2.035680 -13.332909 -0.062931 0.085313 -0.027922
